<svg xmlns="http://www.w3.org/2000/svg" viewBox="0 0 400 400" width="400" height="400">
  <!-- Transparent background -->
  <rect width="100%" height="100%" fill="transparent"/>

  <!-- ðŸ’™ Core Heart -->
  <g id="heart" transform="translate(200,195)">
    <path d="M -34 -20 C -34 -38 -12 -48 0 -34 C 12 -48 34 -38 34 -20 
             C 34 -5 0 22 0 22 C 0 22 -34 -5 -34 -20 Z"
          fill="#0B0643"/>
  </g>

  <!-- ðŸ›¡ï¸ Guardian Dots -->
  <g id="offline" transform="translate(200,195)">
    <!-- Head -->
    <circle cx="0" cy="-58" r="14" fill="#0B0643"/> 
    <!-- Base triangle -->
    <circle cx="-45" cy="15" r="10" fill="#0B0643"/>  <!-- Left -->
    <circle cx="45" cy="15" r="10" fill="#0B0643"/>   <!-- Right -->
    <circle cx="0" cy="63" r="10" fill="#0B0643"/>    <!-- Bottom -->
  </g>

  <!-- 2ï¸âƒ£ CONTACTED -->
  <g id="contacted" transform="translate(200,195)" style="display:none">
    <path d="M -34 -20 C -34 -38 -12 -48 0 -34 C 12 -48 34 -38 34 -20 
             C 34 -5 0 22 0 22 C 0 22 -34 -5 -34 -20 Z"
          fill="#0B0643" stroke="#A4FF85" stroke-width="8" stroke-opacity="0.65"/>
  </g>

  <!-- 3ï¸âƒ£ ONLINE -->
  <g id="online" transform="translate(200,195)" style="display:none">
    <circle r="85" fill="none" stroke="#C1FF72" stroke-width="8"/>
  </g>

  <!-- 4ï¸âƒ£ MESSAGED -->
  <g id="messaged" transform="translate(200,195)" style="display:none">
    <circle r="70" fill="none" stroke="#C1FF72" stroke-width="4" stroke-dasharray="8 8"/>
  </g>

  <!-- 5ï¸âƒ£ ENROUTE -->
  <g id="enroute" transform="translate(200,195)" style="display:none">
    <circle r="95" fill="#C1FF72" opacity="0.18"/>
  </g>
</svg>
