<svg xmlns="http://www.w3.org/2000/svg" xmlns:xlink="http://www.w3.org/1999/xlink" width="500" zoomAndPan="magnify" viewBox="0 0 375 374.999991" height="500" preserveAspectRatio="xMidYMid meet" version="1.0"><defs><g/><clipPath id="da20cc53d6"><path d="M 82.195312 84.8125 L 160.289062 84.8125 L 160.289062 155.457031 L 82.195312 155.457031 Z M 82.195312 84.8125 " clip-rule="nonzero"/></clipPath><clipPath id="7ce07261d7"><path d="M 159.144531 99.742188 C 156.683594 91.394531 148.75 84.8125 139.367188 84.8125 C 131.488281 84.8125 124.644531 89.257812 121.1875 95.785156 C 117.726562 89.257812 110.882812 84.8125 103.007812 84.8125 C 93.191406 84.8125 84.609375 91.394531 82.921875 100.945312 C 78.648438 125.164062 105.738281 144.121094 121.246094 155.457031 C 135.585938 144.976562 166.171875 123.605469 159.144531 99.742188 Z M 159.144531 99.742188 " clip-rule="nonzero"/></clipPath><clipPath id="9f86e3b7e4"><path d="M 0.441406 0.8125 L 78.289062 0.8125 L 78.289062 71.457031 L 0.441406 71.457031 Z M 0.441406 0.8125 " clip-rule="nonzero"/></clipPath><clipPath id="a39f669517"><path d="M 77.144531 15.742188 C 74.683594 7.394531 66.75 0.8125 57.367188 0.8125 C 49.488281 0.8125 42.644531 5.257812 39.1875 11.785156 C 35.726562 5.257812 28.882812 0.8125 21.007812 0.8125 C 11.191406 0.8125 2.609375 7.394531 0.921875 16.945312 C -3.351562 41.164062 23.738281 60.121094 39.246094 71.457031 C 53.585938 60.976562 84.171875 39.605469 77.144531 15.742188 Z M 77.144531 15.742188 " clip-rule="nonzero"/></clipPath><clipPath id="6bdee33d43"><rect x="0" width="79" y="0" height="72"/></clipPath><clipPath id="b4ef42b719"><path d="M 0.359375 0.921875 L 231.960938 0.921875 L 231.960938 269.480469 L 0.359375 269.480469 Z M 0.359375 0.921875 " clip-rule="nonzero"/></clipPath><clipPath id="fa88883d78"><rect x="0" width="232" y="0" height="270"/></clipPath><clipPath id="5a96cfe165"><rect x="0" width="232" y="0" height="270"/></clipPath></defs><rect x="-37.5" width="450" fill="#ffffff" y="-37.499999" height="449.999989" fill-opacity="1"/><rect x="-37.5" width="450" fill="#ffffff" y="-37.499999" height="449.999989" fill-opacity="1"/><g transform="matrix(1, 0, 0, 1, 63, 61)"><g clip-path="url(#5a96cfe165)"><g clip-path="url(#da20cc53d6)"><g clip-path="url(#7ce07261d7)"><g transform="matrix(1, 0, 0, 1, 82, 84)"><g clip-path="url(#6bdee33d43)"><g clip-path="url(#9f86e3b7e4)"><g clip-path="url(#a39f669517)"><path fill="#0b0643" d="M 0.46875 0.8125 L 78.289062 0.8125 L 78.289062 71.457031 L 0.46875 71.457031 Z M 0.46875 0.8125 " fill-opacity="1" fill-rule="nonzero"/></g></g></g></g></g></g><g clip-path="url(#b4ef42b719)"><g transform="matrix(1, 0, 0, 1, -0.000000000000007105, 0)"><g clip-path="url(#fa88883d78)"><g fill="#c1ff72" fill-opacity="1"><g transform="translate(0.593057, 179.18064)"><g><path d="M 42.5625 -127.328125 C 42.5625 -130.578125 43.117188 -132.847656 44.234375 -134.140625 C 45.359375 -135.429688 47.796875 -136.359375 51.546875 -136.921875 C 55.304688 -137.484375 61.84375 -137.765625 71.15625 -137.765625 C 90.769531 -137.765625 100.578125 -135.070312 100.578125 -129.6875 C 100.578125 -126.207031 98.222656 -123.796875 93.515625 -122.453125 C 91.054688 -121.890625 87.132812 -121.21875 81.75 -120.4375 C 73.5625 -119.195312 68.234375 -118.070312 65.765625 -117.0625 C 65.429688 -104.164062 58.984375 -79.5 46.421875 -43.0625 C 39.921875 -24 36.671875 -12.726562 36.671875 -9.25 C 36.671875 -8.570312 37.847656 -8.234375 40.203125 -8.234375 C 42.554688 -8.234375 47.347656 -8.679688 54.578125 -9.578125 C 61.816406 -10.484375 65.9375 -10.9375 66.9375 -10.9375 C 69.75 -10.9375 71.15625 -9.253906 71.15625 -5.890625 C 71.15625 -2.523438 66.441406 1.59375 57.015625 6.46875 C 47.597656 11.351562 39.832031 13.796875 33.71875 13.796875 C 27.613281 13.796875 22.289062 11.914062 17.75 8.15625 C 13.207031 4.394531 10.9375 0.472656 10.9375 -3.609375 C 10.9375 -7.703125 13.429688 -17.796875 18.421875 -33.890625 C 23.410156 -49.984375 28.539062 -67.195312 33.8125 -85.53125 C 39.082031 -103.863281 42 -117.347656 42.5625 -125.984375 Z M 42.5625 -127.328125 "/></g></g></g><g fill="#c1ff72" fill-opacity="1"><g transform="translate(78.464792, 179.18064)"><g/></g></g><g fill="#c1ff72" fill-opacity="1"><g transform="translate(143.217735, 179.18064)"><g><path d="M 83.765625 -120.09375 L 83.765625 -118.078125 C 83.535156 -106.640625 81.988281 -93.660156 79.125 -79.140625 C 76.269531 -64.617188 74.140625 -54.019531 72.734375 -47.34375 C 71.335938 -40.675781 69.460938 -32.128906 67.109375 -21.703125 C 64.753906 -11.273438 63.351562 -4.992188 62.90625 -2.859375 C 61.445312 3.191406 58.835938 7.367188 55.078125 9.671875 C 51.328125 11.972656 45.640625 13.125 38.015625 13.125 C 30.390625 13.125 22.765625 11.1875 15.140625 7.3125 C 7.515625 3.445312 3.703125 -0.835938 3.703125 -5.546875 C 3.703125 -8.910156 5.890625 -10.59375 10.265625 -10.59375 C 12.953125 -10.59375 16.484375 -10.3125 20.859375 -9.75 C 25.234375 -9.195312 29.046875 -8.921875 32.296875 -8.921875 C 35.546875 -8.921875 37.226562 -9.757812 37.34375 -11.4375 C 37.34375 -11.769531 38.015625 -14.40625 39.359375 -19.34375 C 40.703125 -24.28125 42.296875 -30.472656 44.140625 -37.921875 C 45.992188 -45.378906 47.875 -53.257812 49.78125 -61.5625 C 54.269531 -82.082031 56.515625 -97.945312 56.515625 -109.15625 L 53.484375 -109.15625 L 34.3125 -108.328125 C 26.125 -108.328125 22.03125 -110.117188 22.03125 -113.703125 C 22.03125 -118.078125 25.140625 -121.75 31.359375 -124.71875 C 37.585938 -127.695312 45.210938 -129.1875 54.234375 -129.1875 C 63.265625 -129.1875 70.132812 -128.734375 74.84375 -127.828125 C 79.5625 -126.929688 82.421875 -124.800781 83.421875 -121.4375 C 83.648438 -120.769531 83.765625 -120.320312 83.765625 -120.09375 Z M 83.765625 -120.09375 "/></g></g></g></g></g></g></g></g></svg>