<?xml version="1.0" encoding="UTF-8"?>
<svg xmlns="http://www.w3.org/2000/svg"
     width="400" height="400"
     viewBox="0 0 200 200"
     aria-labelledby="title desc">
  <title id="title">Big Brother — Police Icon</title>
  <desc id="desc">Dual-state police icon with shield and heart, proportionally matched to guardian icon.</desc>

  <!-- ======= STATE 1: IDLE (default) ======= -->
  <g id="police-idle">
    <!-- Lime circle -->
    <circle cx="100" cy="100" r="50" fill="none" stroke="#C1FF72" stroke-width="4"/>
    <!-- Shield -->
    <path d="M100 55
             C88 55 75 60 75 75
             L75 105
             C75 125 90 140 100 145
             C110 140 125 125 125 105
             L125 75
             C125 60 112 55 100 55 Z"
          fill="#0B0643"/>
    <!-- Heart -->
    <path d="M100 85
             C96 78 86 78 82 85
             C76 94 93 105 100 113
             C107 105 124 94 118 85
             C114 78 104 78 100 85 Z"
          fill="#FFFFFF"/>
    <!-- Top dot (presence marker) -->
    <circle cx="100" cy="42" r="3.5" fill="#C1FF72"/>
  </g>

  <!-- ======= STATE 2: EMERGENCY ======= -->
  <g id="police-emergency" display="none">
    <!-- Alert backdrop -->
    <rect x="0" y="0" width="200" height="200" fill="#D62828"/>
    <!-- Halo -->
    <circle cx="100" cy="100" r="58" fill="none" stroke="#C1FF72" stroke-width="12" stroke-opacity="0.25"/>
    <!-- Shield -->
    <path d="M100 55
             C88 55 75 60 75 75
             L75 105
             C75 125 90 140 100 145
             C110 140 125 125 125 105
             L125 75
             C125 60 112 55 100 55 Z"
          fill="#0B0643"/>
    <!-- Heart -->
    <path d="M100 85
             C96 78 86 78 82 85
             C76 94 93 105 100 113
             C107 105 124 94 118 85
             C114 78 104 78 100 85 Z"
          fill="#C1FF72"/>
  </g>
</svg>
