<svg xmlns="http://www.w3.org/2000/svg" viewBox="0 0 400 400" width="400" height="400">
  <rect width="100%" height="100%" fill="transparent"/>

  <!-- ========================= -->
  <!-- POLICE ICON - REGULAR STATE -->
  <!-- ========================= -->
  <g id="police_regular" visibility="visible">
    <!-- Dotted pulse ring -->
    <circle 
      cx="200" cy="200" r="120"
      stroke="#0047FF" stroke-width="3" fill="none"
      stroke-dasharray="8,12" opacity="0.25"/>

    <!-- Direction dot -->
    <circle cx="200" cy="80" r="7" fill="#0B0643" opacity="0.9"/>

    <!-- Indigo Shield -->
    <path d="M200 140 
             L255 165 
             L255 195 
             C255 220 225 245 200 253 
             C175 245 145 220 145 195 
             L145 165 Z"
          fill="#0B0643"
          stroke="#0B0643"
          stroke-width="3"
          stroke-linejoin="round"/>

    <!-- Red outer contour -->
    <path d="M172 186 
             C172 168 189 158 200 172 
             C211 158 228 168 228 186 
             C228 202 200 224 200 224 
             C200 224 172 202 172 186 Z"
          fill="none"
          stroke="#FF3131"
          stroke-width="7"
          opacity="0.95"/>

    <!-- Blue inner contour -->
    <path d="M178 188 
             C178 172 191 165 200 177 
             C209 165 222 172 222 188 
             C222 200 200 214 200 214 
             C200 214 178 200 178 188 Z"
          fill="none"
          stroke="#0047FF"
          stroke-width="6"
          opacity="0.9"/>

    <!-- Core white heart -->
    <path d="M185 188 
             C185 178 193 174 200 181 
             C207 174 215 178 215 188 
             C215 195 200 206 200 206 
             C200 206 185 195 185 188 Z"
          fill="#FFFFFF"
          stroke="#FFFFFF"
          stroke-width="2"/>
  </g>

  <!-- ========================= -->
  <!-- POLICE ICON - EMERGENCY STATE -->
  <!-- ========================= -->
  <g id="police_emergency" visibility="hidden">
    <!-- Pulsing halo (stronger beacon ring) -->
    <circle 
      cx="200" cy="200" r="120"
      stroke="#FF3131" stroke-width="5" fill="none"
      stroke-dasharray="10,8" opacity="0.5"/>

    <!-- Direction dot (flashing position) -->
    <circle cx="200" cy="80" r="9" fill="#FF3131" opacity="0.9"/>

    <!-- Shield -->
    <path d="M200 140 
             L255 165 
             L255 195 
             C255 220 225 245 200 253 
             C175 245 145 220 145 195 
             L145 165 Z"
          fill="#0B0643"
          stroke="#0B0643"
          stroke-width="3"
          stroke-linejoin="round"/>

    <!-- Beacon hearts (alternating rings) -->
    <path d="M172 186 
             C172 168 189 158 200 172 
             C211 158 228 168 228 186 
             C228 202 200 224 200 224 
             C200 224 172 202 172 186 Z"
          fill="none"
          stroke="#FFFFFF"
          stroke-width="8"
          opacity="0.95"/>

    <path d="M178 188 
             C178 172 191 165 200 177 
             C209 165 222 172 222 188 
             C222 200 200 214 200 214 
             C200 214 178 200 178 188 Z"
          fill="none"
          stroke="#FF3131"
          stroke-width="6"
          opacity="0.9"/>

    <!-- Heart core -->
    <path d="M185 188 
             C185 178 193 174 200 181 
             C207 174 215 178 215 188 
             C215 195 200 206 200 206 
             C200 206 185 195 185 188 Z"
          fill="#FFFFFF"
          stroke="#FF3131"
          stroke-width="3"/>
  </g>

</svg>
