<svg xmlns="http://www.w3.org/2000/svg" xmlns:xlink="http://www.w3.org/1999/xlink" width="500" zoomAndPan="magnify" viewBox="0 0 375 374.999991" height="500" preserveAspectRatio="xMidYMid meet" version="1.0"><defs><g/><clipPath id="0984083be8"><path d="M 148.371094 152.179688 L 226.464844 152.179688 L 226.464844 222.820312 L 148.371094 222.820312 Z M 148.371094 152.179688 " clip-rule="nonzero"/></clipPath><clipPath id="2f9edc4f89"><path d="M 225.320312 167.105469 C 222.859375 158.757812 214.925781 152.179688 205.542969 152.179688 C 197.667969 152.179688 190.820312 156.625 187.363281 163.152344 C 183.902344 156.625 177.058594 152.179688 169.183594 152.179688 C 159.367188 152.179688 150.785156 158.757812 149.097656 168.308594 C 144.824219 192.527344 171.914062 211.484375 187.421875 222.820312 C 201.765625 212.339844 232.347656 190.972656 225.320312 167.105469 Z M 225.320312 167.105469 " clip-rule="nonzero"/></clipPath><clipPath id="a975d00b46"><path d="M 0.558594 0.179688 L 78.464844 0.179688 L 78.464844 70.820312 L 0.558594 70.820312 Z M 0.558594 0.179688 " clip-rule="nonzero"/></clipPath><clipPath id="fbff7f4eb1"><path d="M 77.320312 15.105469 C 74.859375 6.757812 66.925781 0.179688 57.542969 0.179688 C 49.667969 0.179688 42.820312 4.625 39.363281 11.152344 C 35.902344 4.625 29.058594 0.179688 21.183594 0.179688 C 11.367188 0.179688 2.785156 6.757812 1.097656 16.308594 C -3.175781 40.527344 23.914062 59.484375 39.421875 70.820312 C 53.765625 60.339844 84.347656 38.972656 77.320312 15.105469 Z M 77.320312 15.105469 " clip-rule="nonzero"/></clipPath><clipPath id="e0aa67e783"><rect x="0" width="79" y="0" height="71"/></clipPath><clipPath id="db56f883d8"><rect x="0" width="233" y="0" height="269"/></clipPath></defs><rect x="-37.5" width="450" fill="#ffffff" y="-37.499999" height="449.999989" fill-opacity="1"/><rect x="-37.5" width="450" fill="#ffffff" y="-37.499999" height="449.999989" fill-opacity="1"/><g clip-path="url(#0984083be8)"><g clip-path="url(#2f9edc4f89)"><g transform="matrix(1, 0, 0, 1, 148, 152)"><g clip-path="url(#e0aa67e783)"><g clip-path="url(#a975d00b46)"><g clip-path="url(#fbff7f4eb1)"><path fill="#0b0643" d="M 0.648438 0.179688 L 78.464844 0.179688 L 78.464844 70.820312 L 0.648438 70.820312 Z M 0.648438 0.179688 " fill-opacity="1" fill-rule="nonzero"/></g></g></g></g></g></g><g transform="matrix(1, 0, 0, 1, 65, 71)"><g clip-path="url(#db56f883d8)"><g fill="#c1ff72" fill-opacity="1"><g transform="translate(0.622854, 178.747819)"><g><path d="M 42.5625 -127.328125 C 42.5625 -130.578125 43.117188 -132.847656 44.234375 -134.140625 C 45.359375 -135.429688 47.796875 -136.359375 51.546875 -136.921875 C 55.304688 -137.484375 61.84375 -137.765625 71.15625 -137.765625 C 90.769531 -137.765625 100.578125 -135.070312 100.578125 -129.6875 C 100.578125 -126.207031 98.222656 -123.796875 93.515625 -122.453125 C 91.054688 -121.890625 87.132812 -121.21875 81.75 -120.4375 C 73.5625 -119.195312 68.234375 -118.070312 65.765625 -117.0625 C 65.429688 -104.164062 58.984375 -79.5 46.421875 -43.0625 C 39.921875 -24 36.671875 -12.726562 36.671875 -9.25 C 36.671875 -8.570312 37.847656 -8.234375 40.203125 -8.234375 C 42.554688 -8.234375 47.347656 -8.679688 54.578125 -9.578125 C 61.816406 -10.484375 65.9375 -10.9375 66.9375 -10.9375 C 69.75 -10.9375 71.15625 -9.253906 71.15625 -5.890625 C 71.15625 -2.523438 66.441406 1.59375 57.015625 6.46875 C 47.597656 11.351562 39.832031 13.796875 33.71875 13.796875 C 27.613281 13.796875 22.289062 11.914062 17.75 8.15625 C 13.207031 4.394531 10.9375 0.472656 10.9375 -3.609375 C 10.9375 -7.703125 13.429688 -17.796875 18.421875 -33.890625 C 23.410156 -49.984375 28.539062 -67.195312 33.8125 -85.53125 C 39.082031 -103.863281 42 -117.347656 42.5625 -125.984375 Z M 42.5625 -127.328125 "/></g></g></g><g fill="#c1ff72" fill-opacity="1"><g transform="translate(78.494589, 178.747819)"><g/></g></g><g fill="#c1ff72" fill-opacity="1"><g transform="translate(143.247533, 178.747819)"><g><path d="M 83.765625 -120.09375 L 83.765625 -118.078125 C 83.535156 -106.640625 81.988281 -93.660156 79.125 -79.140625 C 76.269531 -64.617188 74.140625 -54.019531 72.734375 -47.34375 C 71.335938 -40.675781 69.460938 -32.128906 67.109375 -21.703125 C 64.753906 -11.273438 63.351562 -4.992188 62.90625 -2.859375 C 61.445312 3.191406 58.835938 7.367188 55.078125 9.671875 C 51.328125 11.972656 45.640625 13.125 38.015625 13.125 C 30.390625 13.125 22.765625 11.1875 15.140625 7.3125 C 7.515625 3.445312 3.703125 -0.835938 3.703125 -5.546875 C 3.703125 -8.910156 5.890625 -10.59375 10.265625 -10.59375 C 12.953125 -10.59375 16.484375 -10.3125 20.859375 -9.75 C 25.234375 -9.195312 29.046875 -8.921875 32.296875 -8.921875 C 35.546875 -8.921875 37.226562 -9.757812 37.34375 -11.4375 C 37.34375 -11.769531 38.015625 -14.40625 39.359375 -19.34375 C 40.703125 -24.28125 42.296875 -30.472656 44.140625 -37.921875 C 45.992188 -45.378906 47.875 -53.257812 49.78125 -61.5625 C 54.269531 -82.082031 56.515625 -97.945312 56.515625 -109.15625 L 53.484375 -109.15625 L 34.3125 -108.328125 C 26.125 -108.328125 22.03125 -110.117188 22.03125 -113.703125 C 22.03125 -118.078125 25.140625 -121.75 31.359375 -124.71875 C 37.585938 -127.695312 45.210938 -129.1875 54.234375 -129.1875 C 63.265625 -129.1875 70.132812 -128.734375 74.84375 -127.828125 C 79.5625 -126.929688 82.421875 -124.800781 83.421875 -121.4375 C 83.648438 -120.769531 83.765625 -120.320312 83.765625 -120.09375 Z M 83.765625 -120.09375 "/></g></g></g></g></g></svg>