<svg xmlns="http://www.w3.org/2000/svg" xmlns:xlink="http://www.w3.org/1999/xlink" width="500" zoomAndPan="magnify" viewBox="0 0 375 374.999991" height="500" preserveAspectRatio="xMidYMid meet" version="1.0"><defs><clipPath id="25d7d6c817"><path d="M 93.863281 93.863281 L 281.128906 93.863281 L 281.128906 281.128906 L 93.863281 281.128906 Z M 93.863281 93.863281 " clip-rule="nonzero"/></clipPath><clipPath id="46fa1e8d17"><path d="M 187.496094 93.863281 C 135.785156 93.863281 93.863281 135.785156 93.863281 187.496094 C 93.863281 239.207031 135.785156 281.128906 187.496094 281.128906 C 239.207031 281.128906 281.128906 239.207031 281.128906 187.496094 C 281.128906 135.785156 239.207031 93.863281 187.496094 93.863281 Z M 187.496094 93.863281 " clip-rule="nonzero"/></clipPath><clipPath id="452ce5f32e"><path d="M 148.371094 152.179688 L 226.464844 152.179688 L 226.464844 222.820312 L 148.371094 222.820312 Z M 148.371094 152.179688 " clip-rule="nonzero"/></clipPath><clipPath id="589e1a7afe"><path d="M 225.320312 167.105469 C 222.859375 158.757812 214.925781 152.179688 205.542969 152.179688 C 197.667969 152.179688 190.820312 156.625 187.363281 163.152344 C 183.902344 156.625 177.058594 152.179688 169.183594 152.179688 C 159.367188 152.179688 150.785156 158.757812 149.097656 168.308594 C 144.824219 192.527344 171.914062 211.484375 187.421875 222.820312 C 201.765625 212.339844 232.347656 190.972656 225.320312 167.105469 Z M 225.320312 167.105469 " clip-rule="nonzero"/></clipPath><clipPath id="25a43beb39"><path d="M 0.558594 0.179688 L 78.464844 0.179688 L 78.464844 70.820312 L 0.558594 70.820312 Z M 0.558594 0.179688 " clip-rule="nonzero"/></clipPath><clipPath id="e566b4f3db"><path d="M 77.320312 15.105469 C 74.859375 6.757812 66.925781 0.179688 57.542969 0.179688 C 49.667969 0.179688 42.820312 4.625 39.363281 11.152344 C 35.902344 4.625 29.058594 0.179688 21.183594 0.179688 C 11.367188 0.179688 2.785156 6.757812 1.097656 16.308594 C -3.175781 40.527344 23.914062 59.484375 39.421875 70.820312 C 53.765625 60.339844 84.347656 38.972656 77.320312 15.105469 Z M 77.320312 15.105469 " clip-rule="nonzero"/></clipPath><clipPath id="6bc1eef79a"><rect x="0" width="79" y="0" height="71"/></clipPath></defs><rect x="-37.5" width="450" fill="#ffffff" y="-37.499999" height="449.999989" fill-opacity="1"/><rect x="-37.5" width="450" fill="#ffffff" y="-37.499999" height="449.999989" fill-opacity="1"/><g clip-path="url(#25d7d6c817)"><g clip-path="url(#46fa1e8d17)"><path stroke-linecap="butt" transform="matrix(0.75, 0, 0, 0.75, 93.863655, 93.863607)" fill="none" stroke-linejoin="miter" d="M 124.843268 -0.000434915 C 55.895342 -0.000434915 -0.000498515 55.895406 -0.000498515 124.843331 C -0.000498515 193.791257 55.895342 249.687097 124.843268 249.687097 C 193.791193 249.687097 249.687034 193.791257 249.687034 124.843331 C 249.687034 55.895406 193.791193 -0.000434915 124.843268 -0.000434915 Z M 124.843268 -0.000434915 " stroke="#c1ff72" stroke-width="12" stroke-opacity="1" stroke-miterlimit="4"/></g></g><g clip-path="url(#452ce5f32e)"><g clip-path="url(#589e1a7afe)"><g transform="matrix(1, 0, 0, 1, 148, 152)"><g clip-path="url(#6bc1eef79a)"><g clip-path="url(#25a43beb39)"><g clip-path="url(#e566b4f3db)"><path fill="#0b0643" d="M 0.648438 0.179688 L 78.464844 0.179688 L 78.464844 70.820312 L 0.648438 70.820312 Z M 0.648438 0.179688 " fill-opacity="1" fill-rule="nonzero"/></g></g></g></g></g></g></svg>
