<svg xmlns="http://www.w3.org/2000/svg" xmlns:xlink="http://www.w3.org/1999/xlink" width="500" zoomAndPan="magnify" viewBox="0 0 375 374.999991" height="500" preserveAspectRatio="xMidYMid meet" version="1.0"><defs><clipPath id="3a73cfe31b"><path d="M 93.863281 93.863281 L 281.136719 93.863281 L 281.136719 281.136719 L 93.863281 281.136719 Z M 93.863281 93.863281 " clip-rule="nonzero"/></clipPath><clipPath id="d7299a84b3"><path d="M 187.5 93.863281 C 135.785156 93.863281 93.863281 135.785156 93.863281 187.5 C 93.863281 239.214844 135.785156 281.136719 187.5 281.136719 C 239.214844 281.136719 281.136719 239.214844 281.136719 187.5 C 281.136719 135.785156 239.214844 93.863281 187.5 93.863281 Z M 187.5 93.863281 " clip-rule="nonzero"/></clipPath><clipPath id="830ba18469"><path d="M 0.863281 0.863281 L 188.136719 0.863281 L 188.136719 188.136719 L 0.863281 188.136719 Z M 0.863281 0.863281 " clip-rule="nonzero"/></clipPath><clipPath id="993cc1450b"><path d="M 94.5 0.863281 C 42.785156 0.863281 0.863281 42.785156 0.863281 94.5 C 0.863281 146.214844 42.785156 188.136719 94.5 188.136719 C 146.214844 188.136719 188.136719 146.214844 188.136719 94.5 C 188.136719 42.785156 146.214844 0.863281 94.5 0.863281 Z M 94.5 0.863281 " clip-rule="nonzero"/></clipPath><clipPath id="12adc6e509"><rect x="0" width="189" y="0" height="189"/></clipPath><clipPath id="a63bcbcaab"><path d="M 148.371094 152.179688 L 226.464844 152.179688 L 226.464844 222.820312 L 148.371094 222.820312 Z M 148.371094 152.179688 " clip-rule="nonzero"/></clipPath><clipPath id="26c4015a5d"><path d="M 225.320312 167.105469 C 222.859375 158.757812 214.925781 152.179688 205.542969 152.179688 C 197.667969 152.179688 190.820312 156.625 187.363281 163.152344 C 183.902344 156.625 177.058594 152.179688 169.183594 152.179688 C 159.367188 152.179688 150.785156 158.757812 149.097656 168.308594 C 144.824219 192.527344 171.914062 211.484375 187.421875 222.820312 C 201.765625 212.339844 232.347656 190.972656 225.320312 167.105469 Z M 225.320312 167.105469 " clip-rule="nonzero"/></clipPath><clipPath id="50b9544b99"><path d="M 0.558594 0.179688 L 78.464844 0.179688 L 78.464844 70.820312 L 0.558594 70.820312 Z M 0.558594 0.179688 " clip-rule="nonzero"/></clipPath><clipPath id="a788b20b9c"><path d="M 77.320312 15.105469 C 74.859375 6.757812 66.925781 0.179688 57.542969 0.179688 C 49.667969 0.179688 42.820312 4.625 39.363281 11.152344 C 35.902344 4.625 29.058594 0.179688 21.183594 0.179688 C 11.367188 0.179688 2.785156 6.757812 1.097656 16.308594 C -3.175781 40.527344 23.914062 59.484375 39.421875 70.820312 C 53.765625 60.339844 84.347656 38.972656 77.320312 15.105469 Z M 77.320312 15.105469 " clip-rule="nonzero"/></clipPath><clipPath id="2501dfde40"><rect x="0" width="79" y="0" height="71"/></clipPath><clipPath id="3066c426c2"><path d="M 72.902344 72.902344 L 302.085938 72.902344 L 302.085938 302.085938 L 72.902344 302.085938 Z M 72.902344 72.902344 " clip-rule="nonzero"/></clipPath><clipPath id="0a5e37f641"><path d="M 187.496094 72.902344 C 124.207031 72.902344 72.902344 124.207031 72.902344 187.496094 C 72.902344 250.78125 124.207031 302.085938 187.496094 302.085938 C 250.78125 302.085938 302.085938 250.78125 302.085938 187.496094 C 302.085938 124.207031 250.78125 72.902344 187.496094 72.902344 Z M 187.496094 72.902344 " clip-rule="nonzero"/></clipPath></defs><rect x="-37.5" width="450" fill="#ffffff" y="-37.499999" height="449.999989" fill-opacity="1"/><rect x="-37.5" width="450" fill="#ffffff" y="-37.499999" height="449.999989" fill-opacity="1"/><g clip-path="url(#3a73cfe31b)"><g clip-path="url(#d7299a84b3)"><g transform="matrix(1, 0, 0, 1, 93, 93)"><g clip-path="url(#12adc6e509)"><g clip-path="url(#830ba18469)"><g clip-path="url(#993cc1450b)"><path fill="#c1ff72" d="M 0.863281 0.863281 L 188.136719 0.863281 L 188.136719 188.136719 L 0.863281 188.136719 Z M 0.863281 0.863281 " fill-opacity="1" fill-rule="nonzero"/></g></g></g></g></g></g><g clip-path="url(#a63bcbcaab)"><g clip-path="url(#26c4015a5d)"><g transform="matrix(1, 0, 0, 1, 148, 152)"><g clip-path="url(#2501dfde40)"><g clip-path="url(#50b9544b99)"><g clip-path="url(#a788b20b9c)"><path fill="#0b0643" d="M 0.648438 0.179688 L 78.464844 0.179688 L 78.464844 70.820312 L 0.648438 70.820312 Z M 0.648438 0.179688 " fill-opacity="1" fill-rule="nonzero"/></g></g></g></g></g></g><g clip-path="url(#3066c426c2)"><g clip-path="url(#0a5e37f641)"><path fill="#0b0643" d="M 181.617188 76.054688 C 180.648438 76.105469 179.679688 76.167969 178.710938 76.242188 L 178.246094 70.261719 C 179.265625 70.183594 180.285156 70.117188 181.308594 70.0625 Z M 175.820312 76.507812 C 174.84375 76.609375 173.871094 76.722656 172.898438 76.847656 L 172.121094 70.898438 C 173.144531 70.765625 174.171875 70.644531 175.199219 70.539062 Z M 170.003906 77.265625 C 169.042969 77.417969 168.085938 77.582031 167.128906 77.757812 L 166.042969 71.855469 C 167.050781 71.671875 168.058594 71.496094 169.070312 71.339844 Z M 164.273438 78.320312 C 163.316406 78.523438 162.363281 78.738281 161.410156 78.96875 L 160.015625 73.132812 C 161.015625 72.890625 162.023438 72.664062 163.03125 72.453125 Z M 158.578125 79.683594 C 157.640625 79.9375 156.707031 80.199219 155.773438 80.476562 L 154.070312 74.722656 C 155.054688 74.429688 156.039062 74.152344 157.027344 73.890625 Z M 152.984375 81.339844 C 152.058594 81.640625 151.132812 81.957031 150.210938 82.28125 L 148.207031 76.625 C 149.179688 76.28125 150.152344 75.953125 151.132812 75.632812 Z M 147.472656 83.292969 C 146.566406 83.640625 145.664062 84.003906 144.765625 84.375 L 142.46875 78.832031 C 143.414062 78.441406 144.363281 78.058594 145.320312 77.691406 Z M 142.082031 85.53125 C 141.191406 85.929688 140.304688 86.335938 139.425781 86.757812 L 136.835938 81.34375 C 137.765625 80.902344 138.699219 80.46875 139.636719 80.050781 Z M 136.808594 88.050781 C 135.941406 88.492188 135.082031 88.945312 134.226562 89.410156 L 131.359375 84.140625 C 132.261719 83.652344 133.164062 83.175781 134.078125 82.707031 Z M 131.675781 90.84375 C 130.832031 91.332031 129.996094 91.832031 129.164062 92.34375 L 126.023438 87.230469 C 126.898438 86.691406 127.78125 86.167969 128.671875 85.652344 Z M 126.699219 93.902344 C 125.882812 94.433594 125.074219 94.976562 124.269531 95.527344 L 120.867188 90.585938 C 121.710938 90.003906 122.5625 89.433594 123.425781 88.875 Z M 121.882812 97.21875 C 121.097656 97.792969 120.316406 98.375 119.542969 98.96875 L 115.886719 94.214844 C 116.699219 93.585938 117.523438 92.972656 118.351562 92.367188 Z M 117.25 100.78125 C 116.496094 101.394531 115.746094 102.015625 115.007812 102.652344 L 111.105469 98.089844 C 111.886719 97.421875 112.675781 96.765625 113.472656 96.121094 Z M 112.808594 104.578125 C 112.085938 105.230469 111.371094 105.894531 110.664062 106.5625 L 106.53125 102.214844 C 107.277344 101.507812 108.03125 100.808594 108.792969 100.121094 Z M 108.570312 108.605469 C 107.882812 109.292969 107.203125 109.992188 106.53125 110.695312 L 102.179688 106.566406 C 102.886719 105.824219 103.601562 105.085938 104.328125 104.363281 Z M 104.546875 112.84375 C 103.894531 113.566406 103.253906 114.300781 102.621094 115.039062 L 98.058594 111.144531 C 98.726562 110.363281 99.402344 109.589844 100.089844 108.828125 Z M 100.75 117.285156 C 100.136719 118.042969 99.535156 118.808594 98.941406 119.578125 L 94.183594 115.925781 C 94.808594 115.113281 95.445312 114.304688 96.089844 113.507812 Z M 97.191406 121.921875 C 96.617188 122.710938 96.054688 123.503906 95.503906 124.308594 L 90.558594 120.90625 C 91.140625 120.0625 91.734375 119.222656 92.339844 118.390625 Z M 93.878906 126.734375 C 93.347656 127.550781 92.828125 128.375 92.320312 129.203125 L 87.203125 126.066406 C 87.742188 125.191406 88.289062 124.324219 88.847656 123.464844 Z M 90.820312 131.714844 C 90.332031 132.558594 89.855469 133.410156 89.390625 134.269531 L 84.117188 131.402344 C 84.609375 130.5 85.113281 129.601562 85.628906 128.710938 Z M 88.03125 136.847656 C 87.589844 137.714844 87.15625 138.585938 86.738281 139.464844 L 81.324219 136.878906 C 81.765625 135.953125 82.21875 135.035156 82.6875 134.121094 Z M 85.511719 142.121094 C 85.117188 143.011719 84.730469 143.910156 84.355469 144.808594 L 78.8125 142.511719 C 79.207031 141.5625 79.613281 140.617188 80.03125 139.679688 Z M 83.277344 147.515625 C 82.929688 148.425781 82.589844 149.335938 82.265625 150.253906 L 76.609375 148.253906 C 76.953125 147.285156 77.308594 146.324219 77.675781 145.363281 Z M 81.328125 153.03125 C 81.027344 153.953125 80.738281 154.882812 80.460938 155.816406 L 74.707031 154.117188 C 75 153.132812 75.300781 152.152344 75.617188 151.179688 Z M 79.671875 158.621094 C 79.421875 159.5625 79.183594 160.507812 78.957031 161.457031 L 73.121094 160.0625 C 73.359375 159.0625 73.613281 158.066406 73.875 157.074219 Z M 78.3125 164.316406 C 78.113281 165.269531 77.921875 166.21875 77.75 167.175781 L 71.847656 166.089844 C 72.03125 165.082031 72.230469 164.078125 72.441406 163.078125 Z M 77.257812 170.046875 C 77.105469 171.011719 76.96875 171.976562 76.84375 172.945312 L 70.894531 172.167969 C 71.027344 171.148438 71.171875 170.132812 71.332031 169.117188 Z M 76.5 175.863281 C 76.402344 176.828125 76.316406 177.789062 76.238281 178.757812 L 70.257812 178.292969 C 70.335938 177.277344 70.429688 176.261719 70.535156 175.246094 Z M 76.050781 181.664062 C 76.003906 182.640625 75.964844 183.617188 75.941406 184.59375 L 69.941406 184.441406 C 69.96875 183.410156 70.007812 182.382812 70.0625 181.355469 Z M 75.902344 187.539062 C 75.902344 188.523438 75.917969 189.507812 75.941406 190.488281 L 69.945312 190.644531 C 69.917969 189.613281 69.902344 188.578125 69.902344 187.542969 Z M 76.058594 193.417969 C 76.109375 194.386719 76.171875 195.355469 76.246094 196.324219 L 70.265625 196.792969 C 70.1875 195.773438 70.117188 194.75 70.066406 193.730469 Z M 76.511719 199.214844 C 76.613281 200.191406 76.726562 201.164062 76.855469 202.136719 L 70.90625 202.914062 C 70.769531 201.890625 70.652344 200.867188 70.542969 199.839844 Z M 77.273438 205.03125 C 77.425781 205.992188 77.589844 206.949219 77.765625 207.902344 L 71.863281 208.992188 C 71.679688 207.988281 71.503906 206.980469 71.347656 205.96875 Z M 78.332031 210.761719 C 78.535156 211.71875 78.75 212.671875 78.976562 213.621094 L 73.144531 215.023438 C 72.902344 214.019531 72.675781 213.015625 72.460938 212.003906 Z M 79.695312 216.457031 C 79.949219 217.394531 80.210938 218.328125 80.488281 219.257812 L 74.734375 220.964844 C 74.445312 219.980469 74.167969 218.996094 73.902344 218.007812 Z M 81.355469 222.046875 C 81.65625 222.976562 81.972656 223.898438 82.296875 224.820312 L 76.644531 226.828125 C 76.296875 225.855469 75.96875 224.882812 75.648438 223.902344 Z M 83.308594 227.558594 C 83.660156 228.464844 84.019531 229.367188 84.390625 230.265625 L 78.851562 232.566406 C 78.457031 231.621094 78.078125 230.667969 77.710938 229.714844 Z M 85.550781 232.949219 C 85.945312 233.839844 86.355469 234.726562 86.777344 235.605469 L 81.367188 238.195312 C 80.921875 237.269531 80.492188 236.335938 80.070312 235.398438 Z M 88.074219 238.222656 C 88.515625 239.089844 88.96875 239.949219 89.433594 240.800781 L 84.164062 243.671875 C 83.675781 242.773438 83.195312 241.867188 82.730469 240.953125 Z M 90.867188 243.351562 C 91.355469 244.195312 91.855469 245.03125 92.367188 245.863281 L 87.253906 249.007812 C 86.71875 248.132812 86.191406 247.25 85.675781 246.359375 Z M 93.929688 248.332031 C 94.460938 249.144531 95 249.953125 95.554688 250.757812 L 90.613281 254.164062 C 90.03125 253.316406 89.460938 252.464844 88.902344 251.605469 Z M 97.246094 253.140625 C 97.820312 253.929688 98.402344 254.710938 98.996094 255.480469 L 94.242188 259.140625 C 93.617188 258.328125 93 257.503906 92.398438 256.675781 Z M 100.808594 257.773438 C 101.421875 258.53125 102.046875 259.277344 102.679688 260.019531 L 98.121094 263.917969 C 97.453125 263.140625 96.796875 262.351562 96.148438 261.554688 Z M 104.609375 262.214844 C 105.261719 262.9375 105.925781 263.652344 106.59375 264.359375 L 102.246094 268.492188 C 101.539062 267.75 100.84375 266.996094 100.15625 266.234375 Z M 108.636719 266.449219 C 109.324219 267.140625 110.023438 267.820312 110.730469 268.488281 L 106.601562 272.84375 C 105.855469 272.136719 105.121094 271.421875 104.394531 270.695312 Z M 112.878906 270.472656 C 113.601562 271.125 114.335938 271.765625 115.074219 272.398438 L 111.179688 276.960938 C 110.398438 276.292969 109.625 275.617188 108.863281 274.929688 Z M 117.324219 274.265625 C 118.078125 274.878906 118.84375 275.480469 119.617188 276.074219 L 115.964844 280.835938 C 115.148438 280.210938 114.34375 279.574219 113.546875 278.929688 Z M 121.957031 277.824219 C 122.746094 278.398438 123.542969 278.960938 124.347656 279.511719 L 120.945312 284.457031 C 120.101562 283.875 119.261719 283.28125 118.429688 282.679688 Z M 126.773438 281.136719 C 127.589844 281.667969 128.414062 282.1875 129.242188 282.695312 L 126.105469 287.808594 C 125.230469 287.273438 124.363281 286.726562 123.503906 286.167969 Z M 131.753906 284.191406 C 132.601562 284.679688 133.453125 285.15625 134.308594 285.621094 L 131.445312 290.894531 C 130.539062 290.402344 129.644531 289.898438 128.753906 289.386719 Z M 136.886719 286.980469 C 137.757812 287.421875 138.628906 287.851562 139.507812 288.269531 L 136.921875 293.6875 C 135.996094 293.246094 135.078125 292.789062 134.164062 292.324219 Z M 142.164062 289.496094 C 143.054688 289.890625 143.949219 290.277344 144.851562 290.648438 L 142.554688 296.195312 C 141.605469 295.800781 140.664062 295.394531 139.722656 294.976562 Z M 147.558594 291.726562 C 148.46875 292.078125 149.382812 292.414062 150.296875 292.738281 L 148.300781 298.394531 C 147.332031 298.054688 146.367188 297.699219 145.410156 297.332031 Z M 153.074219 293.675781 C 154 293.976562 154.929688 294.265625 155.859375 294.539062 L 154.164062 300.296875 C 153.179688 300.003906 152.199219 299.703125 151.222656 299.386719 Z M 158.667969 295.328125 C 159.609375 295.578125 160.554688 295.816406 161.5 296.042969 L 160.109375 301.878906 C 159.109375 301.640625 158.113281 301.390625 157.121094 301.125 Z M 164.363281 296.6875 C 165.3125 296.886719 166.265625 297.074219 167.21875 297.25 L 166.136719 303.152344 C 165.128906 302.964844 164.125 302.769531 163.125 302.558594 Z M 170.09375 297.738281 C 171.054688 297.890625 172.019531 298.027344 172.988281 298.152344 L 172.21875 304.101562 C 171.195312 303.96875 170.179688 303.824219 169.164062 303.664062 Z M 175.910156 298.492188 C 176.871094 298.59375 177.835938 298.679688 178.800781 298.753906 L 178.339844 304.734375 C 177.324219 304.65625 176.308594 304.566406 175.292969 304.460938 Z M 181.710938 298.9375 C 182.683594 298.988281 183.660156 299.027344 184.640625 299.050781 L 184.488281 305.050781 C 183.457031 305.023438 182.429688 304.984375 181.402344 304.929688 Z M 187.585938 299.085938 C 188.570312 299.085938 189.554688 299.074219 190.535156 299.046875 L 190.695312 305.042969 C 189.660156 305.070312 188.625 305.085938 187.59375 305.085938 Z M 193.460938 298.929688 C 194.433594 298.878906 195.402344 298.816406 196.367188 298.738281 L 196.839844 304.71875 C 195.820312 304.800781 194.796875 304.867188 193.777344 304.921875 Z M 199.261719 298.472656 C 200.238281 298.371094 201.210938 298.257812 202.179688 298.128906 L 202.964844 304.078125 C 201.941406 304.210938 200.914062 304.332031 199.886719 304.441406 Z M 205.078125 297.710938 C 206.035156 297.558594 206.992188 297.394531 207.949219 297.21875 L 209.039062 303.117188 C 208.035156 303.304688 207.027344 303.476562 206.015625 303.636719 Z M 210.804688 296.648438 C 211.761719 296.445312 212.714844 296.230469 213.667969 296 L 215.070312 301.835938 C 214.066406 302.074219 213.0625 302.304688 212.054688 302.519531 Z M 216.5 295.28125 C 217.4375 295.027344 218.371094 294.765625 219.300781 294.488281 L 221.007812 300.242188 C 220.027344 300.53125 219.042969 300.808594 218.054688 301.074219 Z M 222.089844 293.621094 C 223.019531 293.320312 223.941406 293.003906 224.863281 292.675781 L 226.871094 298.332031 C 225.902344 298.675781 224.929688 299.007812 223.949219 299.324219 Z M 227.601562 291.664062 C 228.507812 291.3125 229.410156 290.953125 230.304688 290.582031 L 232.609375 296.121094 C 231.664062 296.511719 230.714844 296.894531 229.757812 297.261719 Z M 232.992188 289.421875 C 233.882812 289.023438 234.769531 288.613281 235.648438 288.191406 L 238.238281 293.605469 C 237.3125 294.046875 236.378906 294.480469 235.441406 294.898438 Z M 238.261719 286.894531 C 239.128906 286.453125 239.988281 286 240.839844 285.535156 L 243.714844 290.800781 C 242.816406 291.292969 241.910156 291.769531 240.996094 292.238281 Z M 243.394531 284.097656 C 244.234375 283.609375 245.074219 283.109375 245.902344 282.597656 L 249.046875 287.710938 C 248.171875 288.246094 247.292969 288.773438 246.402344 289.289062 Z M 248.367188 281.035156 C 249.183594 280.503906 249.992188 279.960938 250.792969 279.410156 L 254.203125 284.347656 C 253.355469 284.929688 252.503906 285.503906 251.644531 286.0625 Z M 253.179688 277.71875 C 253.964844 277.144531 254.746094 276.558594 255.519531 275.964844 L 259.179688 280.71875 C 258.363281 281.34375 257.542969 281.960938 256.714844 282.566406 Z M 257.808594 274.152344 C 258.566406 273.539062 259.3125 272.914062 260.054688 272.28125 L 263.957031 276.835938 C 263.175781 277.503906 262.386719 278.164062 261.59375 278.808594 Z M 262.25 270.347656 C 262.972656 269.695312 263.6875 269.035156 264.390625 268.363281 L 268.527344 272.710938 C 267.785156 273.417969 267.03125 274.113281 266.269531 274.804688 Z M 266.484375 266.320312 C 267.171875 265.632812 267.847656 264.933594 268.519531 264.226562 L 272.875 268.351562 C 272.167969 269.097656 271.453125 269.832031 270.730469 270.558594 Z M 270.503906 262.078125 C 271.152344 261.355469 271.796875 260.621094 272.429688 259.878906 L 276.992188 263.773438 C 276.328125 264.554688 275.648438 265.328125 274.964844 266.089844 Z M 274.296875 257.632812 C 274.90625 256.875 275.511719 256.109375 276.101562 255.335938 L 280.863281 258.988281 C 280.238281 259.804688 279.605469 260.609375 278.960938 261.40625 Z M 277.851562 252.996094 C 278.425781 252.207031 278.988281 251.410156 279.539062 250.605469 L 284.484375 254.003906 C 283.902344 254.851562 283.308594 255.6875 282.707031 256.519531 Z M 281.160156 248.179688 C 281.691406 247.363281 282.210938 246.539062 282.71875 245.707031 L 287.835938 248.84375 C 287.300781 249.71875 286.75 250.585938 286.191406 251.445312 Z M 284.214844 243.195312 C 284.703125 242.351562 285.179688 241.5 285.644531 240.640625 L 290.917969 243.503906 C 290.425781 244.40625 289.925781 245.304688 289.410156 246.195312 Z M 287 238.0625 C 287.441406 237.195312 287.871094 236.320312 288.289062 235.441406 L 293.707031 238.023438 C 293.265625 238.949219 292.8125 239.871094 292.347656 240.785156 Z M 289.515625 232.785156 C 289.910156 231.894531 290.292969 230.996094 290.667969 230.097656 L 296.210938 232.390625 C 295.820312 233.339844 295.414062 234.28125 294.996094 235.222656 Z M 291.746094 227.390625 C 292.09375 226.480469 292.429688 225.566406 292.753906 224.648438 L 298.410156 226.644531 C 298.070312 227.613281 297.714844 228.578125 297.347656 229.535156 Z M 293.691406 221.875 C 293.992188 220.949219 294.277344 220.019531 294.554688 219.085938 L 300.308594 220.78125 C 300.019531 221.765625 299.714844 222.746094 299.398438 223.71875 Z M 295.339844 216.28125 C 295.589844 215.335938 295.828125 214.390625 296.054688 213.445312 L 301.890625 214.835938 C 301.652344 215.832031 301.402344 216.828125 301.136719 217.824219 Z M 296.695312 210.582031 C 296.894531 209.632812 297.082031 208.679688 297.257812 207.726562 L 303.160156 208.804688 C 302.976562 209.8125 302.777344 210.816406 302.566406 211.816406 Z M 297.746094 204.851562 C 297.894531 203.890625 298.035156 202.921875 298.160156 201.953125 L 304.109375 202.722656 C 303.976562 203.746094 303.832031 204.761719 303.671875 205.777344 Z M 298.496094 199.035156 C 298.597656 198.074219 298.683594 197.109375 298.757812 196.144531 L 304.738281 196.601562 C 304.660156 197.617188 304.570312 198.632812 304.464844 199.648438 Z M 298.941406 193.234375 C 298.992188 192.257812 299.027344 191.28125 299.050781 190.304688 L 305.050781 190.453125 C 305.023438 191.480469 304.984375 192.507812 304.933594 193.539062 Z M 299.085938 187.355469 C 299.085938 186.375 299.070312 185.390625 299.042969 184.410156 L 305.042969 184.246094 C 305.070312 185.28125 305.085938 186.3125 305.085938 187.347656 Z M 298.925781 181.484375 C 298.875 180.511719 298.8125 179.542969 298.734375 178.574219 L 304.71875 178.101562 C 304.796875 179.121094 304.863281 180.140625 304.917969 181.164062 Z M 298.46875 175.683594 C 298.367188 174.707031 298.25 173.734375 298.125 172.761719 L 304.070312 171.976562 C 304.207031 173 304.328125 174.027344 304.4375 175.054688 Z M 297.703125 169.867188 C 297.550781 168.90625 297.386719 167.949219 297.207031 166.996094 L 303.109375 165.902344 C 303.292969 166.90625 303.46875 167.917969 303.628906 168.925781 Z M 296.640625 164.140625 C 296.4375 163.183594 296.21875 162.230469 295.992188 161.277344 L 301.824219 159.875 C 302.066406 160.875 302.292969 161.882812 302.507812 162.890625 Z M 295.269531 158.445312 C 295.015625 157.507812 294.753906 156.574219 294.476562 155.644531 L 300.226562 153.933594 C 300.519531 154.914062 300.796875 155.902344 301.0625 156.890625 Z M 293.605469 152.855469 C 293.304688 151.929688 292.988281 151.003906 292.660156 150.082031 L 298.316406 148.074219 C 298.660156 149.042969 298.992188 150.015625 299.3125 150.996094 Z M 291.648438 147.34375 C 291.296875 146.4375 290.9375 145.539062 290.5625 144.640625 L 296.101562 142.335938 C 296.496094 143.28125 296.875 144.230469 297.246094 145.1875 Z M 289.402344 141.957031 C 289.003906 141.066406 288.59375 140.179688 288.171875 139.300781 L 293.582031 136.707031 C 294.027344 137.632812 294.460938 138.566406 294.878906 139.503906 Z M 286.875 136.6875 C 286.433594 135.820312 285.976562 134.960938 285.511719 134.109375 L 290.777344 131.234375 C 291.269531 132.132812 291.75 133.039062 292.214844 133.949219 Z M 284.074219 131.558594 C 283.585938 130.714844 283.085938 129.878906 282.574219 129.046875 L 287.683594 125.902344 C 288.222656 126.777344 288.75 127.65625 289.265625 128.546875 Z M 281.011719 126.582031 C 280.480469 125.765625 279.9375 124.960938 279.382812 124.15625 L 284.320312 120.75 C 284.902344 121.59375 285.476562 122.445312 286.035156 123.304688 Z M 277.691406 121.773438 C 277.117188 120.988281 276.53125 120.207031 275.9375 119.4375 L 280.6875 115.773438 C 281.316406 116.585938 281.929688 117.40625 282.535156 118.234375 Z M 274.125 117.144531 C 273.507812 116.390625 272.882812 115.640625 272.25 114.902344 L 276.804688 110.996094 C 277.472656 111.777344 278.132812 112.5625 278.777344 113.359375 Z M 270.320312 112.707031 C 269.664062 111.984375 269.003906 111.269531 268.332031 110.566406 L 272.675781 106.429688 C 273.386719 107.171875 274.082031 107.921875 274.769531 108.683594 Z M 266.289062 108.476562 C 265.597656 107.785156 264.902344 107.109375 264.191406 106.4375 L 268.316406 102.082031 C 269.0625 102.785156 269.800781 103.5 270.527344 104.226562 Z M 262.042969 104.457031 C 261.320312 103.804688 260.585938 103.164062 259.84375 102.53125 L 263.738281 97.964844 C 264.519531 98.632812 265.292969 99.308594 266.054688 99.992188 Z M 257.597656 100.664062 C 256.839844 100.054688 256.074219 99.449219 255.300781 98.859375 L 258.949219 94.097656 C 259.765625 94.71875 260.570312 95.355469 261.367188 96 Z M 252.957031 97.113281 C 252.167969 96.539062 251.371094 95.976562 250.570312 95.425781 L 253.964844 90.476562 C 254.8125 91.058594 255.648438 91.652344 256.480469 92.253906 Z M 248.140625 93.804688 C 247.324219 93.273438 246.5 92.753906 245.667969 92.246094 L 248.800781 87.128906 C 249.675781 87.664062 250.542969 88.210938 251.40625 88.769531 Z M 243.15625 90.753906 C 242.308594 90.265625 241.457031 89.789062 240.601562 89.324219 L 243.460938 84.050781 C 244.363281 84.539062 245.261719 85.042969 246.152344 85.554688 Z M 238.019531 87.96875 C 237.152344 87.527344 236.277344 87.097656 235.402344 86.679688 L 237.980469 81.261719 C 238.90625 81.703125 239.824219 82.15625 240.742188 82.621094 Z M 232.742188 85.457031 C 231.851562 85.0625 230.957031 84.675781 230.054688 84.304688 L 232.34375 78.757812 C 233.292969 79.152344 234.238281 79.554688 235.179688 79.972656 Z M 227.347656 83.230469 C 226.4375 82.878906 225.523438 82.546875 224.605469 82.222656 L 226.601562 76.5625 C 227.566406 76.902344 228.53125 77.257812 229.492188 77.625 Z M 221.828125 81.285156 C 220.902344 80.984375 219.972656 80.699219 219.042969 80.421875 L 220.734375 74.667969 C 221.71875 74.957031 222.699219 75.257812 223.675781 75.574219 Z M 216.234375 79.636719 C 215.292969 79.386719 214.347656 79.148438 213.398438 78.925781 L 214.789062 73.085938 C 215.789062 73.324219 216.785156 73.574219 217.777344 73.839844 Z M 210.535156 78.285156 C 209.585938 78.085938 208.636719 77.898438 207.679688 77.722656 L 208.757812 71.820312 C 209.765625 72.003906 210.769531 72.203125 211.769531 72.410156 Z M 204.808594 77.238281 C 203.84375 77.085938 202.878906 76.949219 201.910156 76.824219 L 202.675781 70.875 C 203.695312 71.007812 204.714844 71.152344 205.730469 71.308594 Z M 198.988281 76.488281 C 198.027344 76.390625 197.0625 76.304688 196.097656 76.230469 L 196.554688 70.246094 C 197.570312 70.324219 198.585938 70.414062 199.597656 70.519531 Z M 193.1875 76.046875 C 192.214844 75.996094 191.238281 75.960938 190.257812 75.9375 L 190.40625 69.9375 C 191.433594 69.964844 192.460938 70 193.488281 70.054688 Z M 187.496094 75.902344 C 186.511719 75.902344 185.527344 75.914062 184.546875 75.941406 L 184.390625 69.941406 C 185.425781 69.917969 186.460938 69.902344 187.496094 69.902344 Z M 187.496094 75.902344 " fill-opacity="1" fill-rule="nonzero"/></g></g></svg>
